<svg width="30" height="25" viewBox="0 0 30 25" fill="none" xmlns="http://www.w3.org/2000/svg">
<path d="M23.8633 18.7499H12.621C10.9997 18.7499 9.56243 17.6864 9.12357 16.1624L5.32379 3.2865C5.18844 2.81775 4.73785 2.50018 4.2275 2.50018H1.24979C0.922932 2.4931 0.611847 2.35828 0.383184 2.12462C0.154523 1.89095 0.026474 1.57702 0.026474 1.25009C0.026474 0.923154 0.154523 0.609223 0.383184 0.375556C0.611847 0.14189 0.922932 0.00707682 1.24979 0H4.2275C5.84878 0 7.28491 1.06405 7.72377 2.58748L8.43744 5.00035H27.5535C27.9382 5.00016 28.3176 5.09017 28.6613 5.26316C29.0049 5.43615 29.3032 5.68729 29.5322 5.99644C29.7558 6.29604 29.9051 6.64445 29.9677 7.01299C30.0303 7.38154 30.0046 7.75969 29.8926 8.11634L27.3145 16.3012C27.0682 17.0194 26.6028 17.6422 25.9839 18.0819C25.365 18.5217 24.6237 18.7561 23.8645 18.7522L23.8633 18.7499ZM13.7501 25C13.2556 25.0001 12.7721 24.8536 12.3609 24.5789C11.9497 24.3043 11.6291 23.9138 11.4398 23.457C11.2505 23.0002 11.2009 22.4974 11.2973 22.0124C11.3937 21.5274 11.6318 21.0819 11.9814 20.7321C12.331 20.3824 12.7765 20.1442 13.2615 20.0477C13.7465 19.9512 14.2493 20.0007 14.7062 20.1899C15.163 20.3791 15.5535 20.6996 15.8283 21.1107C16.103 21.5219 16.2497 22.0053 16.2497 22.4998C16.2489 23.1626 15.9853 23.798 15.5168 24.2667C15.0482 24.7353 14.4128 24.9991 13.7501 25ZM22.4998 25C22.0054 25 21.522 24.8534 21.1108 24.5786C20.6997 24.3039 20.3792 23.9134 20.19 23.4566C20.0007 22.9998 19.9512 22.497 20.0477 22.0121C20.1442 21.5271 20.3823 21.0816 20.7319 20.7319C21.0816 20.3823 21.5271 20.1442 22.0121 20.0477C22.4971 19.9512 22.9998 20.0007 23.4566 20.19C23.9135 20.3792 24.3039 20.6996 24.5787 21.1108C24.8534 21.522 25 22.0053 25 22.4998C24.9992 23.1627 24.7356 23.7982 24.2669 24.2669C23.7982 24.7356 23.1627 24.9992 22.4998 25Z" fill="#767676"/>
</svg>
