<svg width="30" height="25" viewBox="0 0 30 25" fill="none" xmlns="http://www.w3.org/2000/svg">
<path d="M14.7053 12.2273C17.4848 12.2273 19.7386 9.49015 19.7386 6.11364C19.7386 2.73712 18.9985 0 14.7053 0C10.4121 0 9.67273 2.73712 9.67273 6.11364C9.67273 9.49015 11.9258 12.2273 14.7053 12.2273ZM24.2008 21.3182C24.1083 15.4364 23.3401 13.7606 17.4621 12.7C17.4621 12.7 16.6341 13.7538 14.7053 13.7538C12.7765 13.7538 11.95 12.7 11.95 12.7C6.13636 13.7455 5.32045 15.3962 5.21364 21.1235C5.20455 21.5909 5.20076 21.6152 5.19924 21.5614C5.19924 21.6629 5.19924 21.8508 5.19924 22.1788C5.19924 22.1788 6.59848 25 14.7053 25C22.8121 25 24.2106 22.1788 24.2106 22.1788C24.2106 21.9682 24.2106 21.8212 24.2106 21.7242C24.2106 21.7553 24.2068 21.6902 24.2008 21.3144V21.3182ZM21.6901 11.1356C23.9477 11.1356 25.7811 8.91212 25.7811 6.17045C25.7811 3.42879 25.1773 1.20379 21.6901 1.20379C21.176 1.19639 20.6632 1.25727 20.1651 1.38485C20.9705 2.86894 21.0811 4.67273 21.0811 6.11212C21.0923 7.6921 20.6569 9.2431 19.825 10.5864C20.3825 10.9417 21.0291 11.1321 21.6901 11.1356ZM29.4023 18.5159C29.3265 13.7432 28.703 12.3795 23.9288 11.5159C23.9288 11.5159 23.2568 12.3727 21.6901 12.3727C21.6258 12.3727 21.5629 12.3727 21.5008 12.3682C22.4962 12.8167 23.4015 13.4417 24.0682 14.3553C25.2212 15.9364 25.4856 18.0591 25.5409 21.1788C28.7523 20.5439 29.4106 19.2182 29.4106 19.2182C29.4106 19.0455 29.4106 18.9273 29.4106 18.8462C29.4098 18.875 29.4068 18.8235 29.4023 18.5159ZM7.72045 11.1356C8.38142 11.1328 9.02808 10.9429 9.58561 10.5879C8.77197 9.3 8.3303 7.74318 8.3303 6.11364C8.3303 4.67424 8.44091 2.87045 9.24621 1.38636C8.74795 1.25824 8.23488 1.19684 7.72045 1.20379C4.23409 1.20379 3.63636 3.42803 3.63636 6.17045C3.63636 8.91288 5.46288 11.1356 7.72045 11.1356ZM7.90985 12.3682C7.84848 12.3682 7.78561 12.3727 7.72045 12.3727C6.15455 12.3727 5.48258 11.5159 5.48258 11.5159C0.708333 12.378 0.0840909 13.7386 0.00909091 18.5159C0.0126098 18.6261 0.00957416 18.7364 0 18.8462L0 19.2182C0 19.2182 0.658333 20.5439 3.87045 21.178C3.925 18.0591 4.19015 15.9364 5.34318 14.3553C6.00985 13.4417 6.91515 12.8167 7.90985 12.3682Z" fill="#767676"/>
</svg>
