<svg width="50" height="50" viewBox="0 0 50 50" fill="none" xmlns="http://www.w3.org/2000/svg">
<path d="M24.9995 49.9989C38.8063 49.9989 49.9989 38.8063 49.9989 24.9995C49.9989 11.1926 38.8063 0 24.9995 0C11.1926 0 0 11.1926 0 24.9995C0 38.8063 11.1926 49.9989 24.9995 49.9989Z" fill="#767676"/>
<path d="M24.9951 8.32997C21.46 8.33202 18.017 9.45782 15.1636 11.5447C12.3101 13.6317 10.194 16.5717 9.12087 19.94C8.04774 23.3083 8.07317 26.9306 9.1935 30.2836C10.3138 33.6365 12.471 36.5465 15.3535 38.5932C15.4457 37.4785 15.5654 36.3607 15.6883 35.3362C15.5103 35.1751 15.3355 35.0099 15.1638 34.8382C12.9803 32.6509 11.5878 29.7984 11.2064 26.7314C10.825 23.6644 11.4765 20.5577 13.0578 17.9023C14.6391 15.2468 17.0601 13.194 19.9384 12.068C22.8166 10.9421 25.988 10.8073 28.9514 11.685C31.9148 12.5627 34.5012 14.4027 36.3021 16.9144C38.103 19.4262 39.0157 22.4664 38.8959 25.5547C38.7761 28.643 37.6306 31.6033 35.6405 33.968C33.6505 36.3327 30.9292 37.9668 27.9067 38.6122C27.5041 39.5605 27.0464 40.5851 26.5696 41.5948C30.8441 41.2022 34.8023 39.1758 37.6201 35.9376C40.4378 32.6995 41.8978 28.4991 41.6959 24.2114C41.4941 19.9237 39.6461 15.8791 36.5366 12.9199C33.4272 9.96074 29.2961 8.31511 25.0036 8.32573L24.9951 8.32997Z" fill="white"/>
<path d="M25.0016 27.7595C26.5248 27.7595 27.7595 26.5248 27.7595 25.0016C27.7595 23.4784 26.5248 22.2437 25.0016 22.2437C23.4784 22.2437 22.2437 23.4784 22.2437 25.0016C22.2437 26.5248 23.4784 27.7595 25.0016 27.7595Z" fill="white"/>
<path d="M26.1786 34.1855C26.2981 33.7398 26.3287 33.2749 26.2685 32.8174C26.2083 32.3598 26.0586 31.9186 25.8279 31.519C25.5971 31.1193 25.2899 30.769 24.9238 30.4881C24.5577 30.2072 24.1398 30.0011 23.694 29.8818C23.2482 29.7611 22.7829 29.7296 22.3249 29.7893C21.8669 29.8489 21.4252 29.9985 21.0252 30.2294C20.6252 30.4603 20.2747 30.7679 19.994 31.1346C19.7132 31.5013 19.5077 31.9199 19.3892 32.3663C19.1158 33.3888 18.6772 36.508 18.4473 39.7661C18.2852 42.0536 18.2481 44.0762 18.3297 45.6708C19.0259 45.8953 19.7332 46.0841 20.4487 46.2366C21.3175 44.8963 22.2954 43.1258 23.2999 41.065C24.7249 38.128 25.9052 35.208 26.1786 34.1855Z" fill="white"/>
<path d="M27.4587 15.8314C25.62 15.3372 23.6752 15.4077 21.8772 16.0337C20.0791 16.6596 18.511 17.8121 17.3767 19.3412C16.2424 20.8703 15.5945 22.7054 15.5171 24.6077C15.4397 26.51 15.9365 28.3916 16.9429 30.0078C17.2603 29.4416 17.6583 28.9245 18.1243 28.4726C17.452 27.145 17.1783 25.6511 17.3364 24.1714C17.4945 22.6917 18.0776 21.2894 19.0152 20.1338C19.9527 18.9782 21.2048 18.1187 22.6202 17.6591C24.0355 17.1995 25.5537 17.1594 26.9913 17.5437C28.429 17.928 29.7247 18.7202 30.7219 19.8247C31.7192 20.9292 32.3754 22.2988 32.6114 23.7681C32.8473 25.2374 32.6529 26.7436 32.0516 28.1048C31.4503 29.4661 30.4678 30.6241 29.2228 31.4392C29.4029 32.0666 29.4893 32.7171 29.4792 33.3697C31.1581 32.4728 32.5284 31.0916 33.4119 29.4056C34.2955 27.7196 34.6514 25.8068 34.4335 23.9158C34.2156 22.0249 33.4339 20.2432 32.19 18.8024C30.9461 17.3615 29.2976 16.3282 27.4587 15.8367V15.8314Z" fill="white"/>
</svg>
