<svg width="60" height="60" viewBox="0 0 60 60" fill="none" xmlns="http://www.w3.org/2000/svg">
<path d="M29.9994 59.9987C46.5676 59.9987 59.9987 46.5676 59.9987 29.9994C59.9987 13.4312 46.5676 0 29.9994 0C13.4312 0 0 13.4312 0 29.9994C0 46.5676 13.4312 59.9987 29.9994 59.9987Z" fill="#FF0004"/>
<path d="M29.9943 9.99598C25.7521 9.99843 21.6206 11.3494 18.1964 13.8537C14.7723 16.358 12.233 19.886 10.9452 23.928C9.65744 27.97 9.68795 32.3168 11.0323 36.3403C12.3767 40.3638 14.9654 43.8558 18.4243 46.3118C18.5349 44.9743 18.6786 43.6329 18.8261 42.4034C18.6125 42.2102 18.4027 42.0118 18.1967 41.8059C15.5765 39.1811 13.9056 35.7581 13.4479 32.0777C12.9902 28.3973 13.7719 24.6693 15.6695 21.4827C17.567 18.2962 20.4723 15.8328 23.9262 14.4816C27.3801 13.1305 31.1857 12.9688 34.7418 14.022C38.2978 15.0752 41.4016 17.2833 43.5627 20.2973C45.7238 23.3114 46.819 26.9597 46.6752 30.6656C46.5314 34.3716 45.1569 37.924 42.7688 40.7616C40.3807 43.5992 37.1152 45.5602 33.4882 46.3347C33.0051 47.4726 32.4558 48.7021 31.8837 49.9138C37.013 49.4426 41.763 47.011 45.1442 43.1252C48.5255 39.2394 50.2775 34.199 50.0353 29.0537C49.7931 23.9084 47.5754 19.0549 43.8441 15.5039C40.1128 11.9529 35.1554 9.97814 30.0045 9.99089L29.9943 9.99598Z" fill="white"/>
<path d="M30.0019 33.3114C31.8297 33.3114 33.3114 31.8297 33.3114 30.0019C33.3114 28.1741 31.8297 26.6924 30.0019 26.6924C28.1741 26.6924 26.6924 28.1741 26.6924 30.0019C26.6924 31.8297 28.1741 33.3114 30.0019 33.3114Z" fill="white"/>
<path d="M31.4145 41.0227C31.5579 40.4878 31.5946 39.9299 31.5223 39.3808C31.4501 38.8318 31.2704 38.3024 30.9936 37.8228C30.7167 37.3432 30.3481 36.9228 29.9087 36.5857C29.4694 36.2486 28.9679 36.0014 28.433 35.8581C27.898 35.7133 27.3397 35.6756 26.7901 35.7472C26.2405 35.8187 25.7104 35.9982 25.2304 36.2753C24.7504 36.5523 24.3298 36.9215 23.9929 37.3616C23.656 37.8016 23.4094 38.3039 23.2672 38.8396C22.9391 40.0666 22.4128 43.8096 22.1369 47.7193C21.9423 50.4643 21.8978 52.8914 21.9957 54.8049C22.8313 55.0743 23.68 55.3009 24.5386 55.4839C25.5812 53.8755 26.7547 51.751 27.96 49.278C29.6701 45.7536 31.0864 42.2496 31.4145 41.0227Z" fill="white"/>
<path d="M32.9504 18.9977C30.744 18.4047 28.4102 18.4893 26.2526 19.2404C24.0949 19.9916 22.2131 21.3745 20.852 23.2095C19.4909 25.0444 18.7133 27.2465 18.6205 29.5293C18.5276 31.8121 19.1238 34.07 20.3314 36.0094C20.7123 35.33 21.1899 34.7094 21.7491 34.1671C20.9423 32.574 20.614 30.7814 20.8037 29.0058C20.9934 27.2301 21.693 25.5473 22.8181 24.1606C23.9432 22.7739 25.4457 21.7425 27.1442 21.191C28.8426 20.6394 30.6644 20.5913 32.3896 21.0525C34.1147 21.5136 35.6695 22.4643 36.8663 23.7897C38.063 25.1151 38.8505 26.7586 39.1336 28.5218C39.4167 30.2849 39.1834 32.0924 38.4619 33.7258C37.7403 35.3593 36.5613 36.749 35.0673 37.7271C35.2835 38.4799 35.3872 39.2605 35.375 40.0437C37.3897 38.9674 39.034 37.3099 40.0943 35.2867C41.1545 33.2635 41.5817 30.9682 41.3202 28.699C41.0587 26.4299 40.1206 24.2919 38.628 22.5629C37.1353 20.8339 35.1571 19.5939 32.9504 19.0041V18.9977Z" fill="white"/>
</svg>
