<svg width="25" height="25" viewBox="0 0 25 25" fill="none" xmlns="http://www.w3.org/2000/svg">
<path d="M24.0962 19.7319L19.8481 15.4839C20.7004 13.8776 21.1228 12.0782 21.0742 10.2605C21.0255 8.44279 20.5076 6.66855 19.5706 5.11017C18.6336 3.55178 17.3095 2.26224 15.7269 1.36681C14.1443 0.471393 12.3569 0.000539928 10.5386 0V0C4.72754 0 0 4.72754 0 10.5386C0.00136767 12.3569 0.472797 14.1439 1.36853 15.7263C2.26426 17.3086 3.55387 18.6325 5.11217 19.5695C6.67047 20.5064 8.44454 21.0246 10.2622 21.0737C12.0798 21.1228 13.8792 20.7011 15.4858 19.8496L19.7339 24.0977C20.3126 24.6764 21.0976 25.0015 21.916 25.0015C22.7345 25.0015 23.5194 24.6764 24.0981 24.0977C24.6769 23.5189 25.002 22.734 25.002 21.9155C25.002 21.0971 24.6769 20.3121 24.0981 19.7334L24.0962 19.7319ZM10.5386 16.3706C9.38511 16.3706 8.25754 16.0286 7.29847 15.3877C6.3394 14.7469 5.59189 13.8361 5.15048 12.7704C4.70907 11.7047 4.59357 10.5321 4.8186 9.4008C5.04363 8.2695 5.59908 7.23033 6.41471 6.41471C7.23033 5.59908 8.2695 5.04363 9.4008 4.8186C10.5321 4.59357 11.7047 4.70907 12.7704 5.15048C13.8361 5.59189 14.7469 6.3394 15.3877 7.29847C16.0286 8.25754 16.3706 9.38511 16.3706 10.5386C16.3689 12.0848 15.7539 13.5672 14.6606 14.6606C13.5672 15.7539 12.0848 16.3689 10.5386 16.3706Z" fill="#767676"/>
</svg>
